<svg width="192" height="192" viewBox="0 0 192 192" fill="none" xmlns="http://www.w3.org/2000/svg">
  <rect width="192" height="192" rx="48" fill="#1A73E8"/>
  <path d="M96 60C82.7452 60 72 70.7452 72 84C72 97.2548 82.7452 108 96 108C109.255 108 120 97.2548 120 84C120 70.7452 109.255 60 96 60ZM96 96C89.3726 96 84 90.6274 84 84C84 77.3726 89.3726 72 96 72C102.627 72 108 77.3726 108 84C108 90.6274 102.627 96 96 96Z" fill="white"/>
  <path d="M96 120C71.1472 120 48 131.6 48 156V168H144V156C144 131.6 120.853 120 96 120ZM132 156H60C60 144 77.1472 132 96 132C114.853 132 132 144 132 156Z" fill="white"/>
</svg>
