<svg width="512" height="512" viewBox="0 0 512 512" fill="none" xmlns="http://www.w3.org/2000/svg">
  <rect width="512" height="512" rx="128" fill="#1A73E8"/>
  <path d="M256 160C222.654 160 192 190.654 192 224C192 257.346 222.654 288 256 288C289.346 288 320 257.346 320 224C320 190.654 289.346 160 256 160ZM256 256C238.327 256 224 241.673 224 224C224 206.327 238.327 192 256 192C273.673 192 288 206.327 288 224C288 241.673 273.673 256 256 256Z" fill="white"/>
  <path d="M256 320C189.726 320 128 351.067 128 416V448H384V416C384 351.067 322.274 320 256 320ZM352 416H160C160 384 204.392 352 256 352C307.608 352 352 384 352 416Z" fill="white"/>
</svg>
